<?xml version="1.0" encoding="UTF-8" standalone="no"?>
<!-- Creator: CorelDRAW -->

<svg
   xml:space="preserve"
   width="21.735743mm"
   height="28.168533mm"
   style="clip-rule:evenodd;fill-rule:evenodd;image-rendering:optimizeQuality;shape-rendering:geometricPrecision;text-rendering:geometricPrecision"
   viewBox="0 0 21.735742 28.168533"
   version="1.1"
   id="svg447"
   sodipodi:docname="ie3_logo_korrektur_2023.svg"
   inkscape:version="1.2.2 (b0a8486541, 2022-12-01)"
   xmlns:inkscape="http://www.inkscape.org/namespaces/inkscape"
   xmlns:sodipodi="http://sodipodi.sourceforge.net/DTD/sodipodi-0.dtd"
   xmlns="http://www.w3.org/2000/svg"
   xmlns:svg="http://www.w3.org/2000/svg"
   xmlns:rdf="http://www.w3.org/1999/02/22-rdf-syntax-ns#"
   xmlns:cc="http://creativecommons.org/ns#"
   xmlns:dc="http://purl.org/dc/elements/1.1/"><title
   id="title131">ie3 Logo</title><sodipodi:namedview
   id="namedview449"
   pagecolor="#ffffff"
   bordercolor="#000000"
   borderopacity="0.25"
   inkscape:showpageshadow="2"
   inkscape:pageopacity="0.0"
   inkscape:pagecheckerboard="0"
   inkscape:deskcolor="#d1d1d1"
   inkscape:document-units="mm"
   showgrid="true"
   showguides="false"
   inkscape:zoom="8.0000002"
   inkscape:cx="83.062498"
   inkscape:cy="59.437498"
   inkscape:window-width="2560"
   inkscape:window-height="1376"
   inkscape:window-x="1200"
   inkscape:window-y="27"
   inkscape:window-maximized="1"
   inkscape:current-layer="layer2"><inkscape:grid
     type="xygrid"
     id="grid705"
     originx="-23.467419"
     originy="-18.867496"
     enabled="false" /></sodipodi:namedview>
 <defs
   id="defs364"><inkscape:path-effect
   effect="powerclip"
   id="path-effect1593"
   is_visible="true"
   lpeversion="1"
   inverse="true"
   flatten="false"
   hide_clip="false"
   message="Füllregel Gerade-Ungerade im &lt;b&gt;Füllung und Kontur&lt;/b&gt;-Dialog verwenden, wenn das Anwenden des Ausschnitts mit nachfolgendem Umwandeln in Pfade kein Ergebnis bringt" /><rect
   x="25.928589"
   y="193.53467"
   width="65.756958"
   height="41.589081"
   id="rect1291" />
  <style
   type="text/css"
   id="style362">
   <![CDATA[
    .fil0 {fill:#84B818}
    .fil1 {fill:#F9F9F9}
    .fil2 {fill:#1F1A17;fill-rule:nonzero}
   ]]>
  </style>
 <clipPath
   clipPathUnits="userSpaceOnUse"
   id="clipPath1589"><rect
     style="display:block;fill:#00ff00;stroke-width:0.264583"
     id="rect1591"
     width="8.1383286"
     height="4.8588982"
     x="2.5931664"
     y="37.508087" /></clipPath><clipPath
   clipPathUnits="userSpaceOnUse"
   id="clipPath1677"><g
     inkscape:label="Clip"
     id="use1679"><path
       style="clip-rule:evenodd;display:inline;fill:none;fill-rule:evenodd;stroke-width:0.264583;image-rendering:optimizeQuality;shape-rendering:geometricPrecision;text-rendering:geometricPrecision"
       d="m 38.891982,19.591517 c 0,0 0.693654,-0.729238 2.487293,-0.72344 2.474887,-0.03168 3.409754,1.393618 3.639227,2.696664 0.108866,1.484672 -0.616626,2.066431 -0.616626,2.066431 0,0 0.683581,0.527248 0.79553,1.702487 0.0011,0.3134 0.118157,0.92544 -0.756913,2.109937 -9.41e-4,2.039628 0.0045,3.618128 0.0028,5.760327 -1.477855,2.569702 -3.383523,3.720181 -5.042883,4.65862 -3.354146,1.630919 -6.027682,1.846509 -9.326469,2.105219 -3.546532,0.147345 -6.55922,-0.123603 -6.55922,-0.123603 l -0.04764,-12.136799 1.842853,-0.0046 c 0,0 5.95e-4,3.637532 5.3e-5,5.112254 0.03768,0.704534 1.099588,2.375095 2.71516,2.422074 2.165568,9.11e-4 8.043564,-0.0049 8.043564,-0.0049 l 0.01105,-1.84574 -4.062854,-0.0044 -1.167532,-2.816007 6.816815,0.0064 0.07655,-2.156684 -2.734535,-2.556603 -3.19255,0.006 -2.855542,2.590824 -0.01119,3.9769 0.297466,0.902623 -1.322462,0.0011 -0.766873,-0.947335 0.0069,-6.552885 -3.649827,0.03174 c 0,0 -0.0022,-2.768038 -0.0045,-4.212712 0.169256,-1.571737 1.838698,-2.083137 2.631146,-2.072932 4.209632,0.0028 8.624084,-0.0056 12.7511,0.009 z"
       id="path1700"
       sodipodi:nodetypes="ccccccccccccccccccccccccccccccccc" /></g></clipPath></defs>
 <g
   id="Ebene_x0020_1"
   inkscape:label="Ebene 1"
   inkscape:groupmode="layer"
   style="display:inline"
   transform="translate(-23.46742,-18.867497)">
  <metadata
   id="CorelCorpID_0Corel-Layer" />
  
  
  
  
  
  
  
  
  
  
  
  
  
  
  
  
  
  
  
  
  
  
  
  
  
  
  
  
  
  
  
  
  
  
  
  
  
  
  
  
  
  
  
  
  
  
  
  
  
  
  
  
  
  
  
  
  
  
  
  
  
  
  
  
  
  
  
  
  
  
 </g><g
   inkscape:groupmode="layer"
   id="layer2"
   inkscape:label="Ebene 3"
   style="display:inline"
   transform="translate(-23.46742,-18.867497)"><path
     class="fil0"
     d="m 28.316975,40.780467 c -1.47459,0.04591 -2.795477,-0.05524 -4.258669,-0.154861 0.442991,0.307781 3.034383,0.941009 3.832256,1.09193 1.23655,0.24454 3.041475,0.515175 4.406727,0.527145 2.881293,0.0073 4.658105,-0.279294 6.844439,-1.06602 2.289043,-0.907634 4.554486,-2.598727 5.299284,-3.711037 l 8.07e-4,-2.86634 c -0.877006,1.090379 -1.614179,1.983604 -2.862822,2.825141 -1.283629,0.867539 -2.12137,1.301978 -3.614332,1.885067 -3.857702,1.201845 -5.647845,1.37745 -9.64769,1.468975 z"
     id="Swing1"
     style="clip-rule:evenodd;display:inline;fill:#83b818;fill-rule:nonzero;stroke-width:1.08602;image-rendering:optimizeQuality;shape-rendering:geometricPrecision;text-rendering:geometricPrecision;fill-opacity:1"
     sodipodi:nodetypes="cccccccccc" /><path
     class="fil0"
     d="m 33.152675,42.963046 c -3.38382,0.05674 -6.844275,-0.904694 -9.09437,-1.540704 0.572771,0.497726 4.079095,1.763335 5.079979,2.090339 3.890295,1.187453 7.362649,1.776672 11.008655,0.41247 1.952981,-0.740118 3.719602,-2.127426 4.290418,-2.979958 l 0.002,-2.389497 c -1.484039,1.401043 -1.715958,1.675536 -3.926043,2.915696 -2.743878,1.129262 -4.831032,1.507964 -7.360614,1.491654 z"
     id="Swing2"
     style="clip-rule:evenodd;display:inline;fill:#83b818;fill-rule:nonzero;stroke-width:1.08602;image-rendering:optimizeQuality;shape-rendering:geometricPrecision;text-rendering:geometricPrecision;fill-opacity:1"
     sodipodi:nodetypes="cccccccc" /><path
     class="fil0"
     d="m 23.514663,43.626245 c 1.817881,0.8289 2.772169,1.234426 5.066746,2.012305 3.609797,1.15675 5.27504,1.341502 7.768104,1.395694 1.511936,0.03287 3.783783,-0.392518 4.782602,-0.891656 0.65774,-0.281481 2.200771,-0.968036 3.304859,-2.170563 l 0.0033,-1.929876 c -1.05906,0.900321 -0.889297,1.014707 -3.319711,2.329309 -1.313985,0.511955 -1.931617,0.836287 -5.152376,1.076347 -3.679385,-0.0773 -4.482479,-0.431708 -7.31162,-1.258418 -1.922718,-0.656696 -2.723134,-1.049018 -5.143849,-2.187431 z"
     id="Swing3"
     style="clip-rule:evenodd;display:inline;fill:#83b818;fill-rule:nonzero;stroke-width:1.08602;image-rendering:optimizeQuality;shape-rendering:geometricPrecision;text-rendering:geometricPrecision;fill-opacity:1"
     sodipodi:nodetypes="ccccccccccc" /><path
     id="path1681"
     style="clip-rule:evenodd;display:inline;fill:#83b818;fill-rule:nonzero;stroke-width:0.264583;image-rendering:optimizeQuality;shape-rendering:geometricPrecision;text-rendering:geometricPrecision;fill-opacity:1"
     d="m 41.436747,18.867582 c -0.01915,7.1e-5 -0.03803,2.69e-4 -0.05736,5.17e-4 -1.793635,-0.0058 -2.487186,0.72347 -2.487186,0.72347 h -5.17e-4 c -4.127008,-0.0146 -8.541536,-0.0065 -12.75116,-0.0093 -0.792446,-0.01021 -2.461591,0.501524 -2.630847,2.073259 0.0023,1.44467 0.0047,4.212662 0.0047,4.212662 l 3.629753,-0.0047 c 0,0 0.0073,3.574473 0.0067,6.05286 0.01469,1.282174 0.491536,1.425418 1.359606,1.418518 0.623762,-0.0032 0.745175,0.0041 0.745175,0.0041 0,0 -0.292202,-0.239014 -0.306442,-0.906404 0.0042,-0.81502 0.0185,-1.673881 0.0021,-2.870626 -0.02708,-1.590498 0.623434,-3.707366 3.344499,-3.697966 1.705827,0.001 0.80866,0.0087 2.291333,0.0031 2.469535,-0.0036 3.09736,2.123733 3.12384,2.878894 0.01067,0.991326 0.01757,1.828829 0.01757,1.828829 l -6.909139,-0.01033 c 0,0 -0.0054,0.897768 -0.0036,1.303279 0.01942,1.442397 0.932028,1.469061 1.498617,1.466061 1.948372,0.0015 3.766695,-0.0057 3.766695,-0.0057 l -0.0124,1.90376 c 0,0 -5.28167,-0.0025 -7.456392,-0.0031 -2.309282,-0.03601 -3.30369,-1.625117 -3.30109,-2.960542 5e-4,-1.47472 -0.001,-4.565613 -0.001,-4.565613 l -1.842782,0.0047 0.04754,12.136727 c 0,0 3.012765,0.270851 6.559289,0.123506 3.298781,-0.258708 5.971906,-0.474381 9.326046,-2.105298 1.659356,-0.938437 3.565252,-2.088417 5.043103,-4.658113 0.0017,-2.142195 -0.0035,-3.720748 -0.0026,-5.760372 0.875068,-1.184495 0.757643,-1.796549 0.756543,-2.109949 -0.111949,-1.175237 -0.7953,-1.702738 -0.7953,-1.702738 0,0 0.725366,-0.581871 0.6165,-2.066541 -0.22768,-1.292863 -1.149971,-2.705934 -3.581694,-2.696993 z m -0.0083,0.731738 c 2.094574,0.01101 2.849102,1.200994 2.885612,2.287199 -0.02793,0.74211 -0.49367,1.581801 -1.19941,1.737879 0.776806,0.31272 1.339101,0.905498 1.338936,1.916162 0.0038,1.408646 -1.209419,2.304519 -3.01842,2.306319 -1.761771,0.0765 -2.682104,-0.97872 -3.005501,-1.807642 -0.125771,-0.358756 -0.126656,-0.572376 -0.118856,-0.895035 0.691969,-0.0024 1.523421,-0.0016 1.523421,-0.0016 l 5.17e-4,0.294039 c 0.113766,0.664417 0.440336,1.129226 1.665014,1.104326 0.967644,-0.03482 1.386247,-0.315052 1.409217,-1.117245 0.04133,-0.81666 -0.609184,-1.180157 -1.368909,-1.182357 l -0.681612,-0.0015 -0.0052,-1.21853 0.684713,-0.0041 c 0.814088,-0.0052 1.114121,-0.505024 1.202511,-1.029395 0.03959,-0.596203 -0.416849,-1.137144 -1.291911,-1.115694 -0.657976,0.01104 -0.818564,0.0459 -1.162203,0.304891 -0.110534,0.107563 -0.212453,0.164037 -0.295073,0.322978 -0.117219,0.237823 -0.142196,0.31545 -0.157096,0.648539 h -1.463993 -0.0584 c 0.02419,-1.491549 0.985335,-2.581618 3.116606,-2.549199 z m -16.117362,2.533696 h 1.8557 v 1.833997 h -1.8557 z" /><path
     style="fill:#83b818;stroke-width:0.264583;fill-opacity:1;fill-rule:nonzero"
     d="m 30.841428,28.720065 c 0.123876,-0.989044 1.141656,-1.016802 1.605087,-1.01745 0.770467,0.0038 1.121013,8.1e-4 1.948461,-1.41e-4 0.276502,-3.15e-4 1.288869,0.03132 1.446268,1.014142 -2.028449,0.0022 -2.257044,0.0034 -4.999816,0.0034 z"
     id="path1763"
     sodipodi:nodetypes="cccccc" /></g><g
   inkscape:groupmode="layer"
   id="layer3"
   inkscape:label="Ebene 4"
   transform="translate(-23.46742,-18.867497)"><path
     class="fil1"
     d="m 38.370219,22.148566 1.464151,1.49e-4 c 0.0149,-0.333089 0.03966,-0.410945 0.15688,-0.648769 0.08262,-0.158941 0.184727,-0.215552 0.295261,-0.323115 0.343639,-0.258989 0.504212,-0.293623 1.162188,-0.304659 0.875063,-0.02145 1.331195,0.519332 1.291603,1.115536 -0.08839,0.524371 -0.388158,1.024179 -1.202247,1.029419 l -0.68498,0.0044 0.0055,1.218125 0.681345,0.002 c 0.759726,0.0022 1.410643,0.365404 1.369312,1.182065 -0.02297,0.802194 -0.441823,1.082704 -1.409467,1.117521 -1.22468,0.0249 -1.551455,-0.440133 -1.665221,-1.10455 l -2.69e-4,-0.294002 c 0,0 -0.831593,-0.001 -1.523563,0.0014 -0.0078,0.32266 -0.0069,0.536268 0.118871,0.895025 0.323398,0.828922 1.243799,1.884029 3.005572,1.807525 1.809003,-0.0018 3.022354,-0.897391 3.018505,-2.306039 1.65e-4,-1.010665 -0.562419,-1.603717 -1.339226,-1.916438 0.705741,-0.156078 1.171763,-0.995283 1.199695,-1.737393 -0.03651,-1.086206 -0.79084,-2.27622 -2.885416,-2.287234 -2.131273,-0.03242 -3.092628,1.057387 -3.116818,2.548937 z"
     id="Hoch3"
     sodipodi:nodetypes="ccccccsccsccccccccccccc"
     style="clip-rule:evenodd;display:none;fill:#ffffff;fill-rule:evenodd;stroke-width:1.08602;image-rendering:optimizeQuality;shape-rendering:geometricPrecision;text-rendering:geometricPrecision" /><polygon
     class="fil1"
     points="26.6588,23.8456 28.3389,23.8456 28.3389,22.1656 26.6588,22.1656 "
     id="idot"
     transform="matrix(1.104512,0,0,1.0915008,-4.1337902,-2.0606796)"
     style="clip-rule:evenodd;display:none;fill:#ffffff;fill-rule:evenodd;image-rendering:optimizeQuality;shape-rendering:geometricPrecision;text-rendering:geometricPrecision" /></g>
<metadata
   id="metadata129"><rdf:RDF><cc:Work
       rdf:about=""><dc:title>ie3 Logo</dc:title><dc:date>2023</dc:date><dc:creator><cc:Agent><dc:title>ie3 - TU Dortmund</dc:title></cc:Agent></dc:creator><dc:contributor><cc:Agent><dc:title>Elvermann</dc:title></cc:Agent></dc:contributor></cc:Work></rdf:RDF></metadata></svg>
